{
  "accessors": [
    {
      "bufferView": 2,
      "componentType": 5126,
      "count": 14767,
      "max": [
        2.462982654571533,
        0.3063839077949524,
        3.1758365631103516
      ],
      "min": [
        -2.462982654571533,
        -0.3063839077949524,
        -2.384185791015625e-07
      ],
      "type": "VEC3"
    },
    {
      "bufferView": 2,
      "byteOffset": 177204,
      "componentType": 5126,
      "count": 14767,
      "max": [
        1.0,
        1.0,
        1.0
      ],
      "min": [
        -1.0,
        -1.0,
        -1.0
      ],
      "type": "VEC3"
    },
    {
      "bufferView": 3,
      "componentType": 5126,
      "count": 14767,
      "max": [
        1.0,
        1.0,
        1.0,
        1.0
      ],
      "min": [
        -1.0,
        -1.0,
        -1.0,
        -1.0
      ],
      "type": "VEC4"
    },
    {
      "bufferView": 1,
      "componentType": 5126,
      "count": 14767,
      "max": [
        1.0,
        0.9959745407104492
      ],
      "min": [
        0.0,
        0.0
      ],
      "type": "VEC2"
    },
    {
      "bufferView": 0,
      "componentType": 5125,
      "count": 50295,
      "type": "SCALAR"
    },
    {
      "bufferView": 2,
      "byteOffset": 354408,
      "componentType": 5126,
      "count": 432,
      "max": [
        0.5686689019203186,
        0.1929980367422104,
        2.1587655544281006
      ],
      "min": [
        -0.5686689019203186,
        -0.1929980218410492,
        1.3361632823944092
      ],
      "type": "VEC3"
    },
    {
      "bufferView": 2,
      "byteOffset": 359592,
      "componentType": 5126,
      "count": 432,
      "max": [
        0.9780004620552063,
        1.0,
        0.9780535101890564
      ],
      "min": [
        -0.9780004620552063,
        -1.0,
        -0.9780499935150146
      ],
      "type": "VEC3"
    },
    {
      "bufferView": 3,
      "byteOffset": 236272,
      "componentType": 5126,
      "count": 432,
      "max": [
        1.0,
        0.9809953570365906,
        0.5594320297241211,
        1.0
      ],
      "min": [
        -0.9999997615814209,
        -0.9809960722923279,
        -0.5323581695556641,
        1.0
      ],
      "type": "VEC4"
    },
    {
      "bufferView": 1,
      "byteOffset": 118136,
      "componentType": 5126,
      "count": 432,
      "max": [
        1.0,
        0.8276646137237549
      ],
      "min": [
        0.0,
        0.0
      ],
      "type": "VEC2"
    },
    {
      "bufferView": 0,
      "byteOffset": 201180,
      "componentType": 5125,
      "count": 2280,
      "type": "SCALAR"
    }
  ],
  "asset": {
    "extras": {
      "author": "FREEZLER (https://sketchfab.com/FREEZLER)",
      "license": "CC-BY-4.0 (http://creativecommons.org/licenses/by/4.0/)",
      "source": "https://sketchfab.com/3d-models/cassette-e8621c79cb6543399933ced3971ff0a8",
      "title": "cassette"
    },
    "generator": "Sketchfab-12.66.0",
    "version": "2.0"
  },
  "bufferViews": [
    {
      "buffer": 0,
      "byteLength": 210300,
      "name": "floatBufferViews",
      "target": 34963
    },
    {
      "buffer": 0,
      "byteLength": 121592,
      "byteOffset": 210300,
      "byteStride": 8,
      "name": "floatBufferViews",
      "target": 34962
    },
    {
      "buffer": 0,
      "byteLength": 364776,
      "byteOffset": 331892,
      "byteStride": 12,
      "name": "floatBufferViews",
      "target": 34962
    },
    {
      "buffer": 0,
      "byteLength": 243184,
      "byteOffset": 696668,
      "byteStride": 16,
      "name": "floatBufferViews",
      "target": 34962
    }
  ],
  "buffers": [
    {
      "byteLength": 939852,
      "uri": "scene.bin"
    }
  ],
  "images": [
    {
      "uri": "textures/cassette_baseColor.png"
    },
    {
      "uri": "textures/cassette_metallicRoughness.png"
    },
    {
      "uri": "textures/cassette_normal.png"
    },
    {
      "uri": "textures/glass_baseColor.png"
    },
    {
      "uri": "textures/glass_metallicRoughness.png"
    },
    {
      "uri": "textures/glass_normal.png"
    }
  ],
  "materials": [
    {
      "doubleSided": true,
      "name": "cassette",
      "normalTexture": {
        "index": 2
      },
      "occlusionTexture": {
        "index": 1
      },
      "pbrMetallicRoughness": {
        "baseColorTexture": {
          "index": 0
        },
        "metallicRoughnessTexture": {
          "index": 1
        }
      }
    },
    {
      "alphaMode": "BLEND",
      "doubleSided": true,
      "name": "glass",
      "normalTexture": {
        "index": 5
      },
      "occlusionTexture": {
        "index": 4
      },
      "pbrMetallicRoughness": {
        "baseColorTexture": {
          "index": 3
        },
        "metallicRoughnessTexture": {
          "index": 4
        }
      }
    }
  ],
  "meshes": [
    {
      "name": "cassette_cassette_0",
      "primitives": [
        {
          "attributes": {
            "NORMAL": 1,
            "POSITION": 0,
            "TANGENT": 2,
            "TEXCOORD_0": 3
          },
          "indices": 4,
          "material": 0,
          "mode": 4
        }
      ]
    },
    {
      "name": "glass_glass_0",
      "primitives": [
        {
          "attributes": {
            "NORMAL": 6,
            "POSITION": 5,
            "TANGENT": 7,
            "TEXCOORD_0": 8
          },
          "indices": 9,
          "material": 1,
          "mode": 4
        }
      ]
    }
  ],
  "nodes": [
    {
      "children": [
        1
      ],
      "matrix": [
        1.0,
        0.0,
        0.0,
        0.0,
        0.0,
        2.220446049250313e-16,
        -1.0,
        0.0,
        0.0,
        1.0,
        2.220446049250313e-16,
        0.0,
        0.0,
        0.0,
        0.0,
        1.0
      ],
      "name": "Sketchfab_model"
    },
    {
      "children": [
        2
      ],
      "matrix": [
        0.009999999776482582,
        0.0,
        0.0,
        0.0,
        0.0,
        0.0,
        0.009999999776482582,
        0.0,
        0.0,
        -0.009999999776482582,
        0.0,
        0.0,
        0.0,
        0.0,
        0.0,
        1.0
      ],
      "name": "cassette.fbx"
    },
    {
      "children": [
        3,
        5
      ],
      "name": "RootNode"
    },
    {
      "children": [
        4
      ],
      "matrix": [
        100.0,
        0.0,
        0.0,
        0.0,
        0.0,
        -1.629206793918314e-05,
        -99.99999999999868,
        0.0,
        0.0,
        99.99999999999868,
        -1.629206793918314e-05,
        0.0,
        0.0,
        0.0,
        0.0,
        1.0
      ],
      "name": "cassette"
    },
    {
      "mesh": 0,
      "name": "cassette_cassette_0"
    },
    {
      "children": [
        6
      ],
      "matrix": [
        100.0,
        0.0,
        0.0,
        0.0,
        0.0,
        -1.629206793918314e-05,
        -99.99999999999868,
        0.0,
        0.0,
        99.99999999999868,
        -1.629206793918314e-05,
        0.0,
        0.0,
        0.0,
        0.0,
        1.0
      ],
      "name": "glass"
    },
    {
      "mesh": 1,
      "name": "glass_glass_0"
    }
  ],
  "samplers": [
    {
      "magFilter": 9729,
      "minFilter": 9987,
      "wrapS": 10497,
      "wrapT": 10497
    }
  ],
  "scene": 0,
  "scenes": [
    {
      "name": "Sketchfab_Scene",
      "nodes": [
        0
      ]
    }
  ],
  "textures": [
    {
      "sampler": 0,
      "source": 0
    },
    {
      "sampler": 0,
      "source": 1
    },
    {
      "sampler": 0,
      "source": 2
    },
    {
      "sampler": 0,
      "source": 3
    },
    {
      "sampler": 0,
      "source": 4
    },
    {
      "sampler": 0,
      "source": 5
    }
  ]
}
