{
  "accessors": [
    {
      "bufferView": 2,
      "componentType": 5126,
      "count": 57231,
      "max": [
        7.285590171813965,
        4.45253849029541,
        1.4979276657104492
      ],
      "min": [
        -7.286834716796875,
        -4.32354736328125,
        -43.110870361328125
      ],
      "type": "VEC3"
    },
    {
      "bufferView": 2,
      "byteOffset": 686772,
      "componentType": 5126,
      "count": 57231,
      "max": [
        0.9999787211418152,
        0.9999598860740662,
        0.9999746680259705
      ],
      "min": [
        -0.9999973177909851,
        -0.9999958872795105,
        -0.999825656414032
      ],
      "type": "VEC3"
    },
    {
      "bufferView": 3,
      "componentType": 5126,
      "count": 57231,
      "max": [
        1.0,
        0.9999974370002747,
        0.9991848468780518,
        1.0
      ],
      "min": [
        -0.9999902248382568,
        -0.9999863505363464,
        -0.9997397065162659,
        -1.0
      ],
      "type": "VEC4"
    },
    {
      "bufferView": 1,
      "componentType": 5126,
      "count": 57231,
      "max": [
        0.9999998807907104,
        0.9771921634674072
      ],
      "min": [
        -5.887041520935554e-09,
        -8.486903624316255e-08
      ],
      "type": "VEC2"
    },
    {
      "bufferView": 1,
      "byteOffset": 457848,
      "componentType": 5126,
      "count": 57231,
      "max": [
        0.9999998807907104,
        0.9771921634674072
      ],
      "min": [
        -5.887041520935554e-09,
        -8.486903624316255e-08
      ],
      "type": "VEC2"
    },
    {
      "bufferView": 1,
      "byteOffset": 915696,
      "componentType": 5126,
      "count": 57231,
      "max": [
        0.9999998807907104,
        0.9771921634674072
      ],
      "min": [
        -5.887041520935554e-09,
        -8.486903624316255e-08
      ],
      "type": "VEC2"
    },
    {
      "bufferView": 1,
      "byteOffset": 1373544,
      "componentType": 5126,
      "count": 57231,
      "max": [
        0.9999998807907104,
        0.9771921634674072
      ],
      "min": [
        -5.887041520935554e-09,
        -8.486903624316255e-08
      ],
      "type": "VEC2"
    },
    {
      "bufferView": 0,
      "componentType": 5125,
      "count": 86802,
      "type": "SCALAR"
    }
  ],
  "asset": {
    "extras": {
      "author": "ngooiwong (https://sketchfab.com/ngooi1397)",
      "license": "CC-BY-SA-4.0 (http://creativecommons.org/licenses/by-sa/4.0/)",
      "source": "https://sketchfab.com/3d-models/monster-girl-414de51ea775487294cf2fda4ead8d87",
      "title": "Monster Girl"
    },
    "generator": "Sketchfab-16.65.0",
    "version": "2.0"
  },
  "bufferViews": [
    {
      "buffer": 0,
      "byteLength": 347208,
      "name": "floatBufferViews",
      "target": 34963
    },
    {
      "buffer": 0,
      "byteLength": 1831392,
      "byteOffset": 347208,
      "byteStride": 8,
      "name": "floatBufferViews",
      "target": 34962
    },
    {
      "buffer": 0,
      "byteLength": 1373544,
      "byteOffset": 2178600,
      "byteStride": 12,
      "name": "floatBufferViews",
      "target": 34962
    },
    {
      "buffer": 0,
      "byteLength": 915696,
      "byteOffset": 3552144,
      "byteStride": 16,
      "name": "floatBufferViews",
      "target": 34962
    }
  ],
  "buffers": [
    {
      "byteLength": 4467840,
      "uri": "scene.bin"
    }
  ],
  "images": [
    {
      "uri": "textures/Material.001_baseColor.png"
    },
    {
      "uri": "textures/Material.001_metallicRoughness.png"
    },
    {
      "uri": "textures/Material.001_emissive.png"
    },
    {
      "uri": "textures/Material.001_normal.png"
    }
  ],
  "materials": [
    {
      "alphaMode": "BLEND",
      "doubleSided": true,
      "emissiveFactor": [
        1.0,
        1.0,
        1.0
      ],
      "emissiveTexture": {
        "index": 2
      },
      "name": "Material.001",
      "normalTexture": {
        "index": 3
      },
      "pbrMetallicRoughness": {
        "baseColorTexture": {
          "index": 0
        },
        "metallicRoughnessTexture": {
          "index": 1
        }
      }
    }
  ],
  "meshes": [
    {
      "name": "MGirl_Low.001_Material.001_0",
      "primitives": [
        {
          "attributes": {
            "NORMAL": 1,
            "POSITION": 0,
            "TANGENT": 2,
            "TEXCOORD_0": 3,
            "TEXCOORD_1": 4,
            "TEXCOORD_2": 5,
            "TEXCOORD_3": 6
          },
          "indices": 7,
          "material": 0,
          "mode": 4
        }
      ]
    }
  ],
  "nodes": [
    {
      "children": [
        1
      ],
      "matrix": [
        1.0,
        0.0,
        0.0,
        0.0,
        0.0,
        2.220446049250313e-16,
        -1.0,
        0.0,
        0.0,
        1.0,
        2.220446049250313e-16,
        0.0,
        0.0,
        0.0,
        0.0,
        1.0
      ],
      "name": "Sketchfab_model"
    },
    {
      "children": [
        2
      ],
      "matrix": [
        0.009999999776482582,
        0.0,
        0.0,
        0.0,
        0.0,
        0.0,
        0.009999999776482582,
        0.0,
        0.0,
        -0.009999999776482582,
        0.0,
        0.0,
        0.0,
        0.0,
        0.0,
        1.0
      ],
      "name": "b61a79eb7d8c4cad9b51d16ccbf9a6b1.fbx"
    },
    {
      "children": [
        3
      ],
      "name": "RootNode"
    },
    {
      "children": [
        4
      ],
      "matrix": [
        100.0,
        0.0,
        0.0,
        0.0,
        0.0,
        -2.8212996916465727e-05,
        -99.99999999999602,
        0.0,
        0.0,
        99.99999999999602,
        -2.8212996916465727e-05,
        0.0,
        1428.1278076171875,
        2493.453857421875,
        191.82981872558594,
        1.0
      ],
      "name": "MGirl_Low.001"
    },
    {
      "mesh": 0,
      "name": "MGirl_Low.001_Material.001_0"
    }
  ],
  "samplers": [
    {
      "magFilter": 9729,
      "minFilter": 9987,
      "wrapS": 10497,
      "wrapT": 10497
    }
  ],
  "scene": 0,
  "scenes": [
    {
      "name": "Sketchfab_Scene",
      "nodes": [
        0
      ]
    }
  ],
  "textures": [
    {
      "sampler": 0,
      "source": 0
    },
    {
      "sampler": 0,
      "source": 1
    },
    {
      "sampler": 0,
      "source": 2
    },
    {
      "sampler": 0,
      "source": 3
    }
  ]
}
