{
  "accessors": [
    {
      "bufferView": 2,
      "componentType": 5126,
      "count": 2296,
      "max": [
        0.7125009894371033,
        1.0,
        0.4993720054626465
      ],
      "min": [
        -0.7125009894371033,
        -1.0,
        -0.4993720054626465
      ],
      "type": "VEC3"
    },
    {
      "bufferView": 2,
      "byteOffset": 27552,
      "componentType": 5126,
      "count": 2296,
      "max": [
        0.9999318718910217,
        0.9984103441238403,
        0.9997778534889221
      ],
      "min": [
        -0.9999174475669861,
        -0.9984319806098938,
        -0.9997526407241821
      ],
      "type": "VEC3"
    },
    {
      "bufferView": 3,
      "componentType": 5126,
      "count": 2296,
      "max": [
        0.9999778270721436,
        0.9999405145645142,
        0.9998160004615784,
        1.0
      ],
      "min": [
        -0.9985384345054626,
        -0.9986132383346558,
        -0.9999990463256836,
        -1.0
      ],
      "type": "VEC4"
    },
    {
      "bufferView": 1,
      "componentType": 5126,
      "count": 2296,
      "max": [
        0.9950000047683716,
        0.9898419976234436
      ],
      "min": [
        0.004999999888241291,
        0.004999999888241291
      ],
      "type": "VEC2"
    },
    {
      "bufferView": 0,
      "componentType": 5125,
      "count": 10080,
      "type": "SCALAR"
    }
  ],
  "asset": {
    "extras": {
      "author": "Smallpoly (https://sketchfab.com/smallpoly)",
      "license": "CC-BY-NC-4.0 (http://creativecommons.org/licenses/by-nc/4.0/)",
      "source": "https://sketchfab.com/3d-models/iron-spectre-b57a8ecb11e44dc18d82685597558dc8",
      "title": "Iron Spectre"
    },
    "generator": "Sketchfab-12.68.0",
    "version": "2.0"
  },
  "bufferViews": [
    {
      "buffer": 0,
      "byteLength": 40320,
      "name": "floatBufferViews",
      "target": 34963
    },
    {
      "buffer": 0,
      "byteLength": 18368,
      "byteOffset": 40320,
      "byteStride": 8,
      "name": "floatBufferViews",
      "target": 34962
    },
    {
      "buffer": 0,
      "byteLength": 55104,
      "byteOffset": 58688,
      "byteStride": 12,
      "name": "floatBufferViews",
      "target": 34962
    },
    {
      "buffer": 0,
      "byteLength": 36736,
      "byteOffset": 113792,
      "byteStride": 16,
      "name": "floatBufferViews",
      "target": 34962
    }
  ],
  "buffers": [
    {
      "byteLength": 150528,
      "uri": "scene.bin"
    }
  ],
  "images": [
    {
      "uri": "1001_baseColor.jpeg"
    },
    {
      "uri": "1001_metallicRoughness.png"
    },
    {
      "uri": "1001_normal.png"
    }
  ],
  "materials": [
    {
      "doubleSided": true,
      "name": "1001",
      "normalTexture": {
        "index": 2
      },
      "occlusionTexture": {
        "index": 1
      },
      "pbrMetallicRoughness": {
        "baseColorTexture": {
          "index": 0
        },
        "metallicRoughnessTexture": {
          "index": 1
        }
      }
    }
  ],
  "meshes": [
    {
      "name": "defaultMaterial",
      "primitives": [
        {
          "attributes": {
            "NORMAL": 1,
            "POSITION": 0,
            "TANGENT": 2,
            "TEXCOORD_0": 3
          },
          "indices": 4,
          "material": 0,
          "mode": 4
        }
      ]
    }
  ],
  "nodes": [
    {
      "children": [
        1
      ],
      "matrix": [
        1.0,
        0.0,
        0.0,
        0.0,
        0.0,
        2.220446049250313e-16,
        -1.0,
        0.0,
        0.0,
        1.0,
        2.220446049250313e-16,
        0.0,
        0.0,
        -1.2300000129528145e-08,
        5.700000027530902e-09,
        1.0
      ],
      "name": "Sketchfab_model"
    },
    {
      "children": [
        2
      ],
      "matrix": [
        1.0,
        0.0,
        0.0,
        0.0,
        0.0,
        -4.371139006309477e-08,
        0.999999999999999,
        0.0,
        0.0,
        -0.999999999999999,
        -4.371139006309477e-08,
        0.0,
        0.0,
        0.0,
        0.0,
        1.0
      ],
      "name": "Collada visual scene group"
    },
    {
      "children": [
        3
      ],
      "name": "low"
    },
    {
      "mesh": 0,
      "name": "defaultMaterial"
    }
  ],
  "samplers": [
    {
      "magFilter": 9729,
      "minFilter": 9987,
      "wrapS": 10497,
      "wrapT": 10497
    }
  ],
  "scene": 0,
  "scenes": [
    {
      "name": "Sketchfab_Scene",
      "nodes": [
        0
      ]
    }
  ],
  "textures": [
    {
      "sampler": 0,
      "source": 0
    },
    {
      "sampler": 0,
      "source": 1
    },
    {
      "sampler": 0,
      "source": 2
    }
  ]
}
