{
  "accessors": [
    {
      "bufferView": 2,
      "componentType": 5126,
      "count": 65532,
      "max": [
        0.22791573405265808,
        0.4827813506126404,
        0.49839267134666443
      ],
      "min": [
        -0.22914287447929382,
        -0.4828140437602997,
        -0.5001986026763916
      ],
      "type": "VEC3"
    },
    {
      "bufferView": 2,
      "byteOffset": 786384,
      "componentType": 5126,
      "count": 65532,
      "max": [
        0.9999958872795105,
        1.0,
        0.9999876618385315
      ],
      "min": [
        -0.9999979734420776,
        -0.9999943375587463,
        -0.999998152256012
      ],
      "type": "VEC3"
    },
    {
      "bufferView": 3,
      "componentType": 5126,
      "count": 65532,
      "max": [
        0.9998013973236084,
        0.9999850988388062,
        0.9999884366989136,
        1.0
      ],
      "min": [
        -0.9998915791511536,
        -0.9999412894248962,
        -0.9999945163726807,
        1.0
      ],
      "type": "VEC4"
    },
    {
      "bufferView": 1,
      "componentType": 5126,
      "count": 65532,
      "max": [
        1.0,
        1.0
      ],
      "min": [
        0.0,
        0.0
      ],
      "type": "VEC2"
    },
    {
      "bufferView": 1,
      "byteOffset": 524256,
      "componentType": 5126,
      "count": 65532,
      "max": [
        1.0,
        1.0
      ],
      "min": [
        0.0,
        0.0
      ],
      "type": "VEC2"
    },
    {
      "bufferView": 1,
      "byteOffset": 1048512,
      "componentType": 5126,
      "count": 65532,
      "max": [
        1.0,
        1.0
      ],
      "min": [
        0.0,
        0.0
      ],
      "type": "VEC2"
    },
    {
      "bufferView": 0,
      "componentType": 5125,
      "count": 65532,
      "type": "SCALAR"
    },
    {
      "bufferView": 2,
      "byteOffset": 1572768,
      "componentType": 5126,
      "count": 48966,
      "max": [
        0.21713213622570038,
        0.4827813506126404,
        0.49978095293045044
      ],
      "min": [
        -0.1936202347278595,
        -0.48151442408561707,
        -0.3169650435447693
      ],
      "type": "VEC3"
    },
    {
      "bufferView": 2,
      "byteOffset": 2160360,
      "componentType": 5126,
      "count": 48966,
      "max": [
        0.9999427199363708,
        0.9997694492340088,
        0.9982671141624451
      ],
      "min": [
        -0.9998357892036438,
        -0.9999998807907104,
        -0.9998700618743896
      ],
      "type": "VEC3"
    },
    {
      "bufferView": 3,
      "byteOffset": 1048512,
      "componentType": 5126,
      "count": 48966,
      "max": [
        0.9995772838592529,
        0.9999746680259705,
        0.9999899864196777,
        1.0
      ],
      "min": [
        -0.9999457597732544,
        -0.9999624490737915,
        -0.9999940395355225,
        1.0
      ],
      "type": "VEC4"
    },
    {
      "bufferView": 1,
      "byteOffset": 1572768,
      "componentType": 5126,
      "count": 48966,
      "max": [
        0.9999057054519653,
        1.0
      ],
      "min": [
        0.0018890436040237546,
        0.0052874088287353516
      ],
      "type": "VEC2"
    },
    {
      "bufferView": 1,
      "byteOffset": 1964496,
      "componentType": 5126,
      "count": 48966,
      "max": [
        0.9999057054519653,
        1.0
      ],
      "min": [
        0.0018890436040237546,
        0.0052874088287353516
      ],
      "type": "VEC2"
    },
    {
      "bufferView": 1,
      "byteOffset": 2356224,
      "componentType": 5126,
      "count": 48966,
      "max": [
        0.9999057054519653,
        1.0
      ],
      "min": [
        0.0018890436040237546,
        0.0052874088287353516
      ],
      "type": "VEC2"
    },
    {
      "bufferView": 0,
      "byteOffset": 262128,
      "componentType": 5125,
      "count": 48966,
      "type": "SCALAR"
    }
  ],
  "asset": {
    "extras": {
      "author": "Pigcraft (https://sketchfab.com/s8819296)",
      "license": "CC-BY-4.0 (http://creativecommons.org/licenses/by/4.0/)",
      "source": "https://sketchfab.com/3d-models/grim-reaper-faceless-death-black-wings-poly-aedbff3928964abb9ebabfdc94c9f435",
      "title": "Grim Reaper Faceless Death Black Wings Poly"
    },
    "generator": "Sketchfab-16.99.0",
    "version": "2.0"
  },
  "bufferViews": [
    {
      "buffer": 0,
      "byteLength": 457992,
      "name": "floatBufferViews",
      "target": 34963
    },
    {
      "buffer": 0,
      "byteLength": 2747952,
      "byteOffset": 457992,
      "byteStride": 8,
      "name": "floatBufferViews",
      "target": 34962
    },
    {
      "buffer": 0,
      "byteLength": 2747952,
      "byteOffset": 3205944,
      "byteStride": 12,
      "name": "floatBufferViews",
      "target": 34962
    },
    {
      "buffer": 0,
      "byteLength": 1831968,
      "byteOffset": 5953896,
      "byteStride": 16,
      "name": "floatBufferViews",
      "target": 34962
    }
  ],
  "buffers": [
    {
      "byteLength": 7785864,
      "uri": "scene.bin"
    }
  ],
  "images": [
    {
      "uri": "textures/tripo_mat_6d8a1f6e_baseColor.jpeg"
    },
    {
      "uri": "textures/tripo_mat_6d8a1f6e_metallicRoughness.png"
    },
    {
      "uri": "textures/tripo_mat_6d8a1f6e_normal.png"
    }
  ],
  "materials": [
    {
      "doubleSided": true,
      "name": "tripo_mat_6d8a1f6e",
      "normalTexture": {
        "index": 2,
        "texCoord": 1
      },
      "pbrMetallicRoughness": {
        "baseColorTexture": {
          "index": 0
        },
        "metallicRoughnessTexture": {
          "index": 1
        }
      }
    }
  ],
  "meshes": [
    {
      "name": "tripo_node_6d8a1f6e_tripo_mat_6d8a1f6e_0",
      "primitives": [
        {
          "attributes": {
            "NORMAL": 1,
            "POSITION": 0,
            "TANGENT": 2,
            "TEXCOORD_0": 3,
            "TEXCOORD_1": 4,
            "TEXCOORD_2": 5
          },
          "indices": 6,
          "material": 0,
          "mode": 4
        }
      ]
    },
    {
      "name": "tripo_node_6d8a1f6e_tripo_mat_6d8a1f6e_0",
      "primitives": [
        {
          "attributes": {
            "NORMAL": 8,
            "POSITION": 7,
            "TANGENT": 9,
            "TEXCOORD_0": 10,
            "TEXCOORD_1": 11,
            "TEXCOORD_2": 12
          },
          "indices": 13,
          "material": 0,
          "mode": 4
        }
      ]
    }
  ],
  "nodes": [
    {
      "children": [
        1
      ],
      "matrix": [
        1.0,
        0.0,
        0.0,
        0.0,
        0.0,
        2.220446049250313e-16,
        -1.0,
        0.0,
        0.0,
        1.0,
        2.220446049250313e-16,
        0.0,
        0.0,
        0.0,
        0.0,
        1.0
      ],
      "name": "Sketchfab_model"
    },
    {
      "children": [
        2
      ],
      "matrix": [
        1.0,
        0.0,
        0.0,
        0.0,
        0.0,
        0.0,
        1.0,
        0.0,
        0.0,
        -1.0,
        0.0,
        0.0,
        0.0,
        0.0,
        0.0,
        1.0
      ],
      "name": "e5a1affe08264a18a18a52c16552d1d0.fbx"
    },
    {
      "children": [
        3
      ],
      "name": "RootNode"
    },
    {
      "children": [
        4,
        5
      ],
      "matrix": [
        1.0,
        0.0,
        0.0,
        0.0,
        0.0,
        -4.371139006309477e-08,
        -0.999999999999999,
        0.0,
        0.0,
        0.999999999999999,
        -4.371139006309477e-08,
        0.0,
        0.0,
        0.0,
        0.0,
        1.0
      ],
      "name": "tripo_node_6d8a1f6e"
    },
    {
      "mesh": 0,
      "name": "tripo_node_6d8a1f6e_tripo_mat_6d8a1f6e_0"
    },
    {
      "mesh": 1,
      "name": "tripo_node_6d8a1f6e_tripo_mat_6d8a1f6e_0"
    }
  ],
  "samplers": [
    {
      "magFilter": 9729,
      "minFilter": 9987,
      "wrapS": 10497,
      "wrapT": 10497
    }
  ],
  "scene": 0,
  "scenes": [
    {
      "name": "Sketchfab_Scene",
      "nodes": [
        0
      ]
    }
  ],
  "textures": [
    {
      "sampler": 0,
      "source": 0
    },
    {
      "sampler": 0,
      "source": 1
    },
    {
      "sampler": 0,
      "source": 2
    }
  ]
}
