{
  "accessors": [
    {
      "bufferView": 2,
      "componentType": 5126,
      "count": 65532,
      "max": [
        0.11729217320680618,
        0.3764290511608124,
        0.4977683126926422
      ],
      "min": [
        -0.12092724442481995,
        -0.3768940567970276,
        -0.4999326765537262
      ],
      "type": "VEC3"
    },
    {
      "bufferView": 2,
      "byteOffset": 786384,
      "componentType": 5126,
      "count": 65532,
      "max": [
        0.9999728202819824,
        0.9999144077301025,
        0.9998700618743896
      ],
      "min": [
        -0.9999998211860657,
        -0.9999659061431885,
        -0.9999986290931702
      ],
      "type": "VEC3"
    },
    {
      "bufferView": 3,
      "componentType": 5126,
      "count": 65532,
      "max": [
        0.9999775290489197,
        0.9999828338623047,
        0.9999973177909851,
        1.0
      ],
      "min": [
        -0.9999880194664001,
        -0.9999057650566101,
        -0.9999905824661255,
        -1.0
      ],
      "type": "VEC4"
    },
    {
      "bufferView": 1,
      "componentType": 5126,
      "count": 65532,
      "max": [
        0.9996883869171143,
        0.9998215436935425
      ],
      "min": [
        0.0,
        0.0
      ],
      "type": "VEC2"
    },
    {
      "bufferView": 1,
      "byteOffset": 524256,
      "componentType": 5126,
      "count": 65532,
      "max": [
        0.9996883869171143,
        0.9998215436935425
      ],
      "min": [
        0.0,
        0.0
      ],
      "type": "VEC2"
    },
    {
      "bufferView": 1,
      "byteOffset": 1048512,
      "componentType": 5126,
      "count": 65532,
      "max": [
        0.9996883869171143,
        0.9998215436935425
      ],
      "min": [
        0.0,
        0.0
      ],
      "type": "VEC2"
    },
    {
      "bufferView": 0,
      "componentType": 5125,
      "count": 65532,
      "type": "SCALAR"
    },
    {
      "bufferView": 2,
      "byteOffset": 1572768,
      "componentType": 5126,
      "count": 47670,
      "max": [
        0.12869568169116974,
        0.376659631729126,
        0.49739518761634827
      ],
      "min": [
        -0.11938348412513733,
        -0.21207503974437714,
        -0.18900422751903534
      ],
      "type": "VEC3"
    },
    {
      "bufferView": 2,
      "byteOffset": 2144808,
      "componentType": 5126,
      "count": 47670,
      "max": [
        0.999951183795929,
        0.9998419284820557,
        0.9998780488967896
      ],
      "min": [
        -0.9998926520347595,
        -0.9994502663612366,
        -0.9998899698257446
      ],
      "type": "VEC3"
    },
    {
      "bufferView": 3,
      "byteOffset": 1048512,
      "componentType": 5126,
      "count": 47670,
      "max": [
        0.9999596476554871,
        0.9996007084846497,
        0.9999619722366333,
        1.0
      ],
      "min": [
        -0.9998865723609924,
        -0.9999935030937195,
        -0.9998061656951904,
        1.0
      ],
      "type": "VEC4"
    },
    {
      "bufferView": 1,
      "byteOffset": 1572768,
      "componentType": 5126,
      "count": 47670,
      "max": [
        1.0,
        1.0
      ],
      "min": [
        0.001253613387234509,
        0.012127935886383057
      ],
      "type": "VEC2"
    },
    {
      "bufferView": 1,
      "byteOffset": 1954128,
      "componentType": 5126,
      "count": 47670,
      "max": [
        1.0,
        1.0
      ],
      "min": [
        0.001253613387234509,
        0.012127935886383057
      ],
      "type": "VEC2"
    },
    {
      "bufferView": 1,
      "byteOffset": 2335488,
      "componentType": 5126,
      "count": 47670,
      "max": [
        1.0,
        1.0
      ],
      "min": [
        0.001253613387234509,
        0.012127935886383057
      ],
      "type": "VEC2"
    },
    {
      "bufferView": 0,
      "byteOffset": 262128,
      "componentType": 5125,
      "count": 47670,
      "type": "SCALAR"
    }
  ],
  "asset": {
    "extras": {
      "author": "Pigcraft (https://sketchfab.com/s8819296)",
      "license": "CC-BY-4.0 (http://creativecommons.org/licenses/by/4.0/)",
      "source": "https://sketchfab.com/3d-models/fearsome-dark-knight-spiked-armor-massive-sword-0d959333dd5d4fe5a702ea111dbb5fe9",
      "title": "Fearsome Dark Knight Spiked Armor Massive Sword"
    },
    "generator": "Sketchfab-16.99.0",
    "version": "2.0"
  },
  "bufferViews": [
    {
      "buffer": 0,
      "byteLength": 452808,
      "name": "floatBufferViews",
      "target": 34963
    },
    {
      "buffer": 0,
      "byteLength": 2716848,
      "byteOffset": 452808,
      "byteStride": 8,
      "name": "floatBufferViews",
      "target": 34962
    },
    {
      "buffer": 0,
      "byteLength": 2716848,
      "byteOffset": 3169656,
      "byteStride": 12,
      "name": "floatBufferViews",
      "target": 34962
    },
    {
      "buffer": 0,
      "byteLength": 1811232,
      "byteOffset": 5886504,
      "byteStride": 16,
      "name": "floatBufferViews",
      "target": 34962
    }
  ],
  "buffers": [
    {
      "byteLength": 7697736,
      "uri": "scene.bin"
    }
  ],
  "images": [
    {
      "uri": "textures/tripo_mat_df7ba076_baseColor.jpeg"
    },
    {
      "uri": "textures/tripo_mat_df7ba076_metallicRoughness.png"
    },
    {
      "uri": "textures/tripo_mat_df7ba076_normal.png"
    }
  ],
  "materials": [
    {
      "doubleSided": true,
      "name": "tripo_mat_df7ba076",
      "normalTexture": {
        "index": 2,
        "texCoord": 1
      },
      "pbrMetallicRoughness": {
        "baseColorTexture": {
          "index": 0
        },
        "metallicRoughnessTexture": {
          "index": 1
        }
      }
    }
  ],
  "meshes": [
    {
      "name": "tripo_node_df7ba076_tripo_mat_df7ba076_0",
      "primitives": [
        {
          "attributes": {
            "NORMAL": 1,
            "POSITION": 0,
            "TANGENT": 2,
            "TEXCOORD_0": 3,
            "TEXCOORD_1": 4,
            "TEXCOORD_2": 5
          },
          "indices": 6,
          "material": 0,
          "mode": 4
        }
      ]
    },
    {
      "name": "tripo_node_df7ba076_tripo_mat_df7ba076_0",
      "primitives": [
        {
          "attributes": {
            "NORMAL": 8,
            "POSITION": 7,
            "TANGENT": 9,
            "TEXCOORD_0": 10,
            "TEXCOORD_1": 11,
            "TEXCOORD_2": 12
          },
          "indices": 13,
          "material": 0,
          "mode": 4
        }
      ]
    }
  ],
  "nodes": [
    {
      "children": [
        1
      ],
      "matrix": [
        1.0,
        0.0,
        0.0,
        0.0,
        0.0,
        2.220446049250313e-16,
        -1.0,
        0.0,
        0.0,
        1.0,
        2.220446049250313e-16,
        0.0,
        0.0,
        0.0,
        0.0,
        1.0
      ],
      "name": "Sketchfab_model"
    },
    {
      "children": [
        2
      ],
      "matrix": [
        1.0,
        0.0,
        0.0,
        0.0,
        0.0,
        0.0,
        1.0,
        0.0,
        0.0,
        -1.0,
        0.0,
        0.0,
        0.0,
        0.0,
        0.0,
        1.0
      ],
      "name": "ea7d057afe8945bcb9c323d94338a358.fbx"
    },
    {
      "children": [
        3
      ],
      "name": "RootNode"
    },
    {
      "children": [
        4,
        5
      ],
      "matrix": [
        1.0,
        0.0,
        0.0,
        0.0,
        0.0,
        -4.371139006309477e-08,
        -0.999999999999999,
        0.0,
        0.0,
        0.999999999999999,
        -4.371139006309477e-08,
        0.0,
        0.0,
        0.0,
        0.0,
        1.0
      ],
      "name": "tripo_node_df7ba076"
    },
    {
      "mesh": 0,
      "name": "tripo_node_df7ba076_tripo_mat_df7ba076_0"
    },
    {
      "mesh": 1,
      "name": "tripo_node_df7ba076_tripo_mat_df7ba076_0"
    }
  ],
  "samplers": [
    {
      "magFilter": 9729,
      "minFilter": 9987,
      "wrapS": 10497,
      "wrapT": 10497
    }
  ],
  "scene": 0,
  "scenes": [
    {
      "name": "Sketchfab_Scene",
      "nodes": [
        0
      ]
    }
  ],
  "textures": [
    {
      "sampler": 0,
      "source": 0
    },
    {
      "sampler": 0,
      "source": 1
    },
    {
      "sampler": 0,
      "source": 2
    }
  ]
}
